<mxfile host="app.diagrams.net" modified="2023-10-27T13:13:05.415Z" agent="Mozilla/5.0 (Macintosh; Intel Mac OS X 10_15_7) AppleWebKit/605.1.15 (KHTML, like Gecko) Version/16.6 Safari/605.1.15" version="22.0.8" etag="6jX4vHMkELbiHt9zWOKm" type="github">
  <diagram name="Page-1" id="Tl7hxvd4fADJS7qlwrgb">
    <mxGraphModel>
      <root>
        <mxCell id="0" />
        <mxCell id="1" parent="0" />
      </root>
    </mxGraphModel>
  </diagram>
</mxfile>
